<svg xmlns="http://www.w3.org/2000/svg" xmlns:xlink="http://www.w3.org/1999/xlink" width="1366" height="565" version="1.1">
<style type="text/css">
.l0{
  fill: #000000;
  stroke: #000000;
  stroke-linecap:round;
  stroke-linejoin:round;
  stroke-width: 0.410645;
}
.l1{
  fill: #00ccee;
  stroke: #00ccee;
  stroke-linecap:round;
  stroke-linejoin:round;
  stroke-width: 0.410645;
}
.l2{
  fill: #4f4f4f; fill-opacity: 0.2;
  stroke: #4f4f4f;
  stroke-linecap:round;
  stroke-linejoin:round;
  stroke-width: 0.410645;
}
.l3{
  fill: #cccccc; fill-opacity: 0.5;
  stroke: #cccccc;
  stroke-linecap:round;
  stroke-linejoin:round;
  stroke-width: 0.410645;
}
.l4{
  fill: #88dd00;
  stroke: #88dd00;
  stroke-linecap:round;
  stroke-linejoin:round;
  stroke-width: 0.410645;
}
.l5{
  fill: #bb2200;
  stroke: #bb2200;
  stroke-linecap:round;
  stroke-linejoin:round;
  stroke-width: 0.410645;
}
.l6{
  fill: #00ccee; fill-opacity: 0.5;
  stroke: #00ccee;
  stroke-linecap:round;
  stroke-linejoin:round;
  stroke-width: 0.410645;
}
.l7{
  fill: #ff0000; fill-opacity: 0.5;
  stroke: #ff0000;
  stroke-linecap:round;
  stroke-linejoin:round;
  stroke-width: 0.410645;
}
.l8{
  fill: #ffff00; fill-opacity: 0.5;
  stroke: #ffff00;
  stroke-linecap:round;
  stroke-linejoin:round;
  stroke-width: 0.410645;
}
.l9{
  fill: #ffffff; fill-opacity: 0.5;
  stroke: #ffffff;
  stroke-linecap:round;
  stroke-linejoin:round;
  stroke-width: 0.410645;
}
.l10{
  fill: #ff00ff;
  stroke: #ff00ff;
  stroke-linecap:round;
  stroke-linejoin:round;
  stroke-width: 0.410645;
}
.l11{
  fill: #00ff00; fill-opacity: 0.5;
  stroke: #00ff00;
  stroke-linecap:round;
  stroke-linejoin:round;
  stroke-width: 0.410645;
}
.l12{
  fill: #0044ff; fill-opacity: 0.5;
  stroke: #0044ff;
  stroke-linecap:round;
  stroke-linejoin:round;
  stroke-width: 0.410645;
}
.l13{
  fill: #aaaa00; fill-opacity: 0.5;
  stroke: #aaaa00;
  stroke-linecap:round;
  stroke-linejoin:round;
  stroke-width: 0.410645;
}
.l14{
  fill: #aaccaa; fill-opacity: 0.2;
  stroke: #aaccaa;
  stroke-linecap:round;
  stroke-linejoin:round;
  stroke-width: 0.410645;
}
.l15{
  fill: #ff7777; fill-opacity: 0.5;
  stroke: #ff7777;
  stroke-linecap:round;
  stroke-linejoin:round;
  stroke-width: 0.410645;
}
.l16{
  fill: #bfff81; fill-opacity: 0.5;
  stroke: #bfff81;
  stroke-linecap:round;
  stroke-linejoin:round;
  stroke-width: 0.410645;
}
.l17{
  fill: #00ffcc; fill-opacity: 0.2;
  stroke: #00ffcc;
  stroke-linecap:round;
  stroke-linejoin:round;
  stroke-width: 0.410645;
}
.l18{
  fill: #ce0097; fill-opacity: 0.5;
  stroke: #ce0097;
  stroke-linecap:round;
  stroke-linejoin:round;
  stroke-width: 0.410645;
}
.l19{
  fill: #d2d46b; fill-opacity: 0.2;
  stroke: #d2d46b;
  stroke-linecap:round;
  stroke-linejoin:round;
  stroke-width: 0.410645;
}
.l20{
  fill: #ef6158; fill-opacity: 0.2;
  stroke: #ef6158;
  stroke-linecap:round;
  stroke-linejoin:round;
  stroke-width: 0.410645;
}
.l21{
  fill: #fdb200; fill-opacity: 0.2;
  stroke: #fdb200;
  stroke-linecap:round;
  stroke-linejoin:round;
  stroke-width: 0.410645;
}
text {font-family: Sans-Serif;}
</style>
<rect class="l0" x="0" y="0" width="1366" height="565"/>
<path class="l4" style="fill:none;" d="M565.503 419.303"/>
<path class="l4" d="M403.527 330.33L403.527 344.018"/>
<path class="l4" d="M407.329 328.049L407.329 331.851"/>
<path class="l4" d="M407.329 342.497L407.329 346.3"/>
<path class="l4" d="M402.006 332.612L402.006 341.737"/>
<path class="l4" d="M403.527 342.497L407.329 342.497"/>
<path class="l4" d="M405.047 331.851L407.329 331.851"/>
<path class="l4" d="M395.162 337.174L398.964 337.174"/>
<path class="l4" d="M405.047 331.091L403.527 331.851L405.047 332.612L405.047 331.091"/>
<circle class="l4" cx="400.485" cy="337.174" r="1.52091" style="fill:none;" />
<path class="l4" d="M478.051 330.33L478.051 344.018"/>
<path class="l4" d="M474.249 328.049L474.249 331.851"/>
<path class="l4" d="M474.249 342.497L474.249 346.3"/>
<path class="l4" d="M479.572 332.612L479.572 341.737"/>
<path class="l4" d="M474.249 342.497L478.051 342.497"/>
<path class="l4" d="M474.249 331.851L476.53 331.851"/>
<path class="l4" d="M482.614 337.174L486.416 337.174"/>
<path class="l4" d="M476.53 331.091L478.051 331.851L476.53 332.612L476.53 331.091"/>
<circle class="l4" cx="481.093" cy="337.174" r="1.52091" style="fill:none;" />
<path class="l4" d="M555.617 330.33L555.617 344.018"/>
<path class="l4" d="M559.419 328.049L559.419 331.851"/>
<path class="l4" d="M559.419 342.497L559.419 346.3"/>
<path class="l4" d="M554.096 332.612L554.096 341.737"/>
<path class="l4" d="M555.617 342.497L559.419 342.497"/>
<path class="l4" d="M557.138 331.851L559.419 331.851"/>
<path class="l4" d="M547.252 337.174L551.054 337.174"/>
<path class="l4" d="M557.138 331.091L555.617 331.851L557.138 332.612L557.138 331.091"/>
<circle class="l4" cx="552.575" cy="337.174" r="1.52091" style="fill:none;" />
<path class="l4" d="M630.141 330.33L630.141 344.018"/>
<path class="l4" d="M626.339 328.049L626.339 331.851"/>
<path class="l4" d="M626.339 342.497L626.339 346.3"/>
<path class="l4" d="M631.662 332.612L631.662 341.737"/>
<path class="l4" d="M626.339 342.497L630.141 342.497"/>
<path class="l4" d="M626.339 331.851L628.621 331.851"/>
<path class="l4" d="M634.704 337.174L638.506 337.174"/>
<path class="l4" d="M628.621 331.091L630.141 331.851L628.621 332.612L628.621 331.091"/>
<circle class="l4" cx="633.183" cy="337.174" r="1.52091" style="fill:none;" />
<path class="l4" d="M403.527 385.083L403.527 398.771"/>
<path class="l4" d="M395.162 391.927L402.006 391.927"/>
<path class="l4" d="M407.329 382.801L407.329 386.604"/>
<path class="l4" d="M407.329 397.25L407.329 401.052"/>
<path class="l4" d="M402.006 387.364L402.006 396.49"/>
<path class="l4" d="M403.527 386.604L407.329 386.604"/>
<path class="l4" d="M403.527 397.25L405.808 397.25"/>
<path class="l4" d="M405.808 396.49L407.329 397.25L405.808 398.011L405.808 396.49"/>
<path class="l4" d="M478.051 385.083L478.051 398.771"/>
<path class="l4" d="M479.572 391.927L486.416 391.927"/>
<path class="l4" d="M474.249 382.801L474.249 386.604"/>
<path class="l4" d="M474.249 397.25L474.249 401.052"/>
<path class="l4" d="M479.572 387.364L479.572 396.49"/>
<path class="l4" d="M474.249 386.604L478.051 386.604"/>
<path class="l4" d="M475.77 397.25L478.051 397.25"/>
<path class="l4" d="M475.77 396.49L474.249 397.25L475.77 398.011L475.77 396.49"/>
<path class="l4" d="M555.617 385.083L555.617 398.771"/>
<path class="l4" d="M547.252 391.927L554.096 391.927"/>
<path class="l4" d="M559.419 382.801L559.419 386.604"/>
<path class="l4" d="M559.419 397.25L559.419 401.052"/>
<path class="l4" d="M554.096 387.364L554.096 396.49"/>
<path class="l4" d="M555.617 386.604L559.419 386.604"/>
<path class="l4" d="M555.617 397.25L557.898 397.25"/>
<path class="l4" d="M557.898 396.49L559.419 397.25L557.898 398.011L557.898 396.49"/>
<path class="l4" d="M630.141 385.083L630.141 398.771"/>
<path class="l4" d="M631.662 391.927L638.506 391.927"/>
<path class="l4" d="M626.339 382.801L626.339 386.604"/>
<path class="l4" d="M626.339 397.25L626.339 401.052"/>
<path class="l4" d="M631.662 387.364L631.662 396.49"/>
<path class="l4" d="M626.339 386.604L630.141 386.604"/>
<path class="l4" d="M627.86 397.25L630.141 397.25"/>
<path class="l4" d="M627.86 396.49L626.339 397.25L627.86 398.011L627.86 396.49"/>
<path class="l4" d="M513.792 413.22L513.792 417.022"/>
<path class="l4" d="M512.271 417.022L515.313 417.022"/>
<path class="l4" d="M513.792 418.543L515.313 417.022"/>
<path class="l4" d="M512.271 417.022L513.792 418.543"/>
<path class="l4" d="M777.669 330.33L777.669 344.018"/>
<path class="l4" d="M781.472 328.049L781.472 331.851"/>
<path class="l4" d="M781.472 342.497L781.472 346.3"/>
<path class="l4" d="M776.148 332.612L776.148 341.737"/>
<path class="l4" d="M777.669 342.497L781.472 342.497"/>
<path class="l4" d="M779.19 331.851L781.472 331.851"/>
<path class="l4" d="M769.304 337.174L773.107 337.174"/>
<path class="l4" d="M779.19 331.091L777.669 331.851L779.19 332.612L779.19 331.091"/>
<circle class="l4" cx="774.628" cy="337.174" r="1.52091" style="fill:none;" />
<path class="l4" d="M852.194 330.33L852.194 344.018"/>
<path class="l4" d="M848.391 328.049L848.391 331.851"/>
<path class="l4" d="M848.391 342.497L848.391 346.3"/>
<path class="l4" d="M853.715 332.612L853.715 341.737"/>
<path class="l4" d="M848.391 342.497L852.194 342.497"/>
<path class="l4" d="M848.391 331.851L850.673 331.851"/>
<path class="l4" d="M856.756 337.174L860.559 337.174"/>
<path class="l4" d="M850.673 331.091L852.194 331.851L850.673 332.612L850.673 331.091"/>
<circle class="l4" cx="855.236" cy="337.174" r="1.52091" style="fill:none;" />
<path class="l4" d="M929.76 330.33L929.76 344.018"/>
<path class="l4" d="M933.562 328.049L933.562 331.851"/>
<path class="l4" d="M933.562 342.497L933.562 346.3"/>
<path class="l4" d="M928.239 332.612L928.239 341.737"/>
<path class="l4" d="M929.76 342.497L933.562 342.497"/>
<path class="l4" d="M931.281 331.851L933.562 331.851"/>
<path class="l4" d="M921.395 337.174L925.197 337.174"/>
<path class="l4" d="M931.281 331.091L929.76 331.851L931.281 332.612L931.281 331.091"/>
<circle class="l4" cx="926.718" cy="337.174" r="1.52091" style="fill:none;" />
<path class="l4" d="M1004.28 330.33L1004.28 344.018"/>
<path class="l4" d="M1000.48 328.049L1000.48 331.851"/>
<path class="l4" d="M1000.48 342.497L1000.48 346.3"/>
<path class="l4" d="M1005.81 332.612L1005.81 341.737"/>
<path class="l4" d="M1000.48 342.497L1004.28 342.497"/>
<path class="l4" d="M1000.48 331.851L1002.76 331.851"/>
<path class="l4" d="M1008.85 337.174L1012.65 337.174"/>
<path class="l4" d="M1002.76 331.091L1004.28 331.851L1002.76 332.612L1002.76 331.091"/>
<circle class="l4" cx="1007.33" cy="337.174" r="1.52091" style="fill:none;" />
<path class="l4" d="M777.669 385.083L777.669 398.771"/>
<path class="l4" d="M769.304 391.927L776.148 391.927"/>
<path class="l4" d="M781.472 382.801L781.472 386.604"/>
<path class="l4" d="M781.472 397.25L781.472 401.052"/>
<path class="l4" d="M776.148 387.364L776.148 396.49"/>
<path class="l4" d="M777.669 386.604L781.472 386.604"/>
<path class="l4" d="M777.669 397.25L779.951 397.25"/>
<path class="l4" d="M779.951 396.49L781.472 397.25L779.951 398.011L779.951 396.49"/>
<path class="l4" d="M852.194 385.083L852.194 398.771"/>
<path class="l4" d="M853.715 391.927L860.559 391.927"/>
<path class="l4" d="M848.391 382.801L848.391 386.604"/>
<path class="l4" d="M848.391 397.25L848.391 401.052"/>
<path class="l4" d="M853.715 387.364L853.715 396.49"/>
<path class="l4" d="M848.391 386.604L852.194 386.604"/>
<path class="l4" d="M849.912 397.25L852.194 397.25"/>
<path class="l4" d="M849.912 396.49L848.391 397.25L849.912 398.011L849.912 396.49"/>
<path class="l4" d="M929.76 385.083L929.76 398.771"/>
<path class="l4" d="M921.395 391.927L928.239 391.927"/>
<path class="l4" d="M933.562 382.801L933.562 386.604"/>
<path class="l4" d="M933.562 397.25L933.562 401.052"/>
<path class="l4" d="M928.239 387.364L928.239 396.49"/>
<path class="l4" d="M929.76 386.604L933.562 386.604"/>
<path class="l4" d="M929.76 397.25L932.041 397.25"/>
<path class="l4" d="M932.041 396.49L933.562 397.25L932.041 398.011L932.041 396.49"/>
<path class="l4" d="M1004.28 385.083L1004.28 398.771"/>
<path class="l4" d="M1005.81 391.927L1012.65 391.927"/>
<path class="l4" d="M1000.48 382.801L1000.48 386.604"/>
<path class="l4" d="M1000.48 397.25L1000.48 401.052"/>
<path class="l4" d="M1005.81 387.364L1005.81 396.49"/>
<path class="l4" d="M1000.48 386.604L1004.28 386.604"/>
<path class="l4" d="M1002 397.25L1004.28 397.25"/>
<path class="l4" d="M1002 396.49L1000.48 397.25L1002 398.011L1002 396.49"/>
<path class="l4" d="M887.935 413.22L887.935 417.022"/>
<path class="l4" d="M886.414 417.022L889.456 417.022"/>
<path class="l4" d="M887.935 418.543L889.456 417.022"/>
<path class="l4" d="M886.414 417.022L887.935 418.543"/>
<path class="l4" d="M1043.07 559.227L1064.36 559.227"/>
<path class="l4" d="M1043.07 559.227L1043.07 565"/>
<path class="l4" d="M1234.7 516.641L1255.99 516.641"/>
<path class="l4" d="M1234.7 516.641L1234.7 522.725"/>
<path class="l4" d="M1058.28 493.828L1058.28 501.432"/>
<path class="l4" d="M1058.28 483.181L1058.28 490.786"/>
<path class="l4" d="M1055.23 490.786L1061.32 490.786"/>
<path class="l4" d="M1055.23 493.828L1061.32 493.828"/>
<path class="l4" d="M1059.04 485.463L1060.56 485.463"/>
<path class="l4" d="M1059.8 484.702L1059.8 486.223"/>
<path class="l4" d="M708.468 363.03L708.468 370.634"/>
<path class="l4" d="M708.468 352.383L708.468 359.988"/>
<path class="l4" d="M705.426 359.988L711.51 359.988"/>
<path class="l4" d="M705.426 363.03L711.51 363.03"/>
<path class="l4" d="M709.229 354.665L710.75 354.665"/>
<path class="l4" d="M709.989 353.904L709.989 355.425"/>
<path class="l4" d="M708.468 370.634L708.468 374.436"/>
<path class="l4" d="M706.947 374.436L709.989 374.436"/>
<path class="l4" d="M708.468 375.957L709.989 374.436"/>
<path class="l4" d="M706.947 374.436L708.468 375.957"/>
<path class="l4" d="M1058.28 501.432L1058.28 505.234"/>
<path class="l4" d="M1056.76 505.234L1059.8 505.234"/>
<path class="l4" d="M1058.28 506.755L1059.8 505.234"/>
<path class="l4" d="M1056.76 505.234L1058.28 506.755"/>
<path class="l4" d="M422.538 331.091L422.538 337.174"/>
<path class="l4" d="M419.496 331.091L425.58 331.091"/>
<path class="l4" d="M459.04 331.091L459.04 337.174"/>
<path class="l4" d="M455.998 331.091L462.081 331.091"/>
<path class="l4" d="M571.587 331.091L571.587 337.174"/>
<path class="l4" d="M568.545 331.091L574.628 331.091"/>
<path class="l4" d="M614.172 331.091L614.172 337.174"/>
<path class="l4" d="M611.13 331.091L617.214 331.091"/>
<path class="l4" d="M796.681 331.091L796.681 337.174"/>
<path class="l4" d="M793.639 331.091L799.723 331.091"/>
<path class="l4" d="M833.182 331.091L833.182 337.174"/>
<path class="l4" d="M830.141 331.091L836.224 331.091"/>
<path class="l4" d="M945.729 331.091L945.729 337.174"/>
<path class="l4" d="M942.688 331.091L948.771 331.091"/>
<path class="l4" d="M988.315 331.091L988.315 337.174"/>
<path class="l4" d="M985.273 331.091L991.357 331.091"/>
<path class="l4" d="M298.584 263.41L300.105 263.41"/>
<path class="l4" d="M299.344 262.65L299.344 264.171"/>
<path class="l4" d="M297.824 261.129L297.824 279.38"/>
<circle class="l4" cx="297.824" cy="270.254" r="4.56272" style="fill:none;" />
<path class="l4" d="M297.824 288.505L297.824 292.308"/>
<path class="l4" d="M296.303 292.308L299.344 292.308"/>
<path class="l4" d="M297.824 293.828L299.344 292.308"/>
<path class="l4" d="M296.303 292.308L297.824 293.828"/>
<path class="l4" d="M268.166 163.031L269.687 163.031"/>
<path class="l4" d="M268.926 162.27L268.926 163.791"/>
<path class="l4" d="M267.405 160.749L267.405 179"/>
<circle class="l4" cx="267.405" cy="169.875" r="4.56272" style="fill:none;" />
<path class="l4" d="M267.405 179L267.405 182.802"/>
<path class="l4" d="M265.885 182.802L268.926 182.802"/>
<path class="l4" d="M267.405 184.323L268.926 182.802"/>
<path class="l4" d="M265.885 182.802L267.405 184.323"/>
<path class="l4" d="M379.952 321.965L379.952 325.767"/>
<path class="l4" d="M378.432 325.767L381.473 325.767"/>
<path class="l4" d="M379.952 327.288L381.473 325.767"/>
<path class="l4" d="M378.432 325.767L379.952 327.288"/>
<path class="l4" d="M379.952 288.505L379.952 293.068"/>
<path class="l4" d="M379.952 302.193L379.952 306.756"/>
<path class="l4" d="M380.713 290.787L382.234 290.787"/>
<path class="l4" d="M381.473 290.026L381.473 291.547"/>
<path class="l4" d="M379.952 295.349L379.952 298.391L380.713 298.391L379.952 300.673L379.192 298.391L379.952 298.391L379.952 295.349"/>
<circle class="l4" cx="379.952" cy="297.631" r="4.56272" style="fill:none;" />
<path class="l4" d="M459.8 263.41L461.321 263.41"/>
<path class="l4" d="M460.56 262.65L460.56 264.171"/>
<path class="l4" d="M462.081 261.129L462.081 279.38"/>
<circle class="l4" cx="462.081" cy="270.254" r="4.56272" style="fill:none;" />
<path class="l4" d="M462.081 288.505L462.081 292.308"/>
<path class="l4" d="M460.56 292.308L463.602 292.308"/>
<path class="l4" d="M460.56 292.308L462.081 293.828"/>
<path class="l4" d="M462.081 293.828L463.602 292.308"/>
<path class="l4" d="M336.607 245.159L336.607 258.848"/>
<path class="l4" d="M328.242 252.004L335.086 252.004"/>
<path class="l4" d="M340.409 242.878L340.409 246.68"/>
<path class="l4" d="M340.409 257.327L340.409 261.129"/>
<path class="l4" d="M335.086 247.441L335.086 256.566"/>
<path class="l4" d="M336.607 246.68L340.409 246.68"/>
<path class="l4" d="M336.607 257.327L338.888 257.327"/>
<path class="l4" d="M338.888 256.566L340.409 257.327L338.888 258.087L338.888 256.566"/>
<path class="l4" d="M423.298 245.159L423.298 258.848"/>
<path class="l4" d="M424.819 252.004L431.663 252.004"/>
<path class="l4" d="M419.496 242.878L419.496 246.68"/>
<path class="l4" d="M419.496 257.327L419.496 261.129"/>
<path class="l4" d="M424.819 247.441L424.819 256.566"/>
<path class="l4" d="M419.496 246.68L423.298 246.68"/>
<path class="l4" d="M421.017 257.327L423.298 257.327"/>
<path class="l4" d="M421.017 256.566L419.496 257.327L421.017 258.087L421.017 256.566"/>
<path class="l4" d="M336.607 166.072L336.607 179.761"/>
<path class="l4" d="M340.409 163.791L340.409 167.593"/>
<path class="l4" d="M340.409 178.24L340.409 182.042"/>
<path class="l4" d="M335.086 168.354L335.086 177.479"/>
<path class="l4" d="M336.607 178.24L340.409 178.24"/>
<path class="l4" d="M338.128 167.593L340.409 167.593"/>
<path class="l4" d="M328.242 172.916L332.044 172.916"/>
<path class="l4" d="M338.128 166.833L336.607 167.593L338.128 168.354L338.128 166.833"/>
<circle class="l4" cx="333.565" cy="172.916" r="1.52091" style="fill:none;" />
<path class="l4" d="M423.298 166.072L423.298 179.761"/>
<path class="l4" d="M419.496 163.791L419.496 167.593"/>
<path class="l4" d="M419.496 178.24L419.496 182.042"/>
<path class="l4" d="M424.819 168.354L424.819 177.479"/>
<path class="l4" d="M419.496 178.24L423.298 178.24"/>
<path class="l4" d="M419.496 167.593L421.777 167.593"/>
<path class="l4" d="M427.861 172.916L431.663 172.916"/>
<path class="l4" d="M421.777 166.833L423.298 167.593L421.777 168.354L421.777 166.833"/>
<circle class="l4" cx="426.34" cy="172.916" r="1.52091" style="fill:none;" />
<path class="l4" d="M725.959 166.072L725.959 179.761"/>
<path class="l4" d="M729.761 163.791L729.761 167.593"/>
<path class="l4" d="M729.761 178.24L729.761 182.042"/>
<path class="l4" d="M724.438 168.354L724.438 177.479"/>
<path class="l4" d="M725.959 178.24L729.761 178.24"/>
<path class="l4" d="M727.479 167.593L729.761 167.593"/>
<path class="l4" d="M717.594 172.916L721.396 172.916"/>
<path class="l4" d="M727.479 166.833L725.959 167.593L727.479 168.354L727.479 166.833"/>
<circle class="l4" cx="722.917" cy="172.916" r="1.52091" style="fill:none;" />
<path class="l5" d="M405.808 336.414L407.329 337.174L405.808 337.935L405.808 336.414"/>
<path class="l5" d="M406.568 345.539L408.089 345.539L408.089 347.06L406.568 347.06L406.568 345.539z"/>
<path class="l5" d="M394.401 336.414L395.922 336.414L395.922 337.935L394.401 337.935L394.401 336.414z"/>
<path class="l5" d="M406.568 327.288L408.089 327.288L408.089 328.809L406.568 328.809L406.568 327.288z"/>
<path class="l5" d="M407.305 337.151L407.353 337.151L407.353 337.198L407.305 337.198L407.305 337.151z"/>
<path class="l5" d="M475.77 336.414L474.249 337.174L475.77 337.935L475.77 336.414"/>
<path class="l5" d="M473.488 345.539L475.009 345.539L475.009 347.06L473.488 347.06L473.488 345.539z"/>
<path class="l5" d="M485.655 336.414L487.176 336.414L487.176 337.935L485.655 337.935L485.655 336.414z"/>
<path class="l5" d="M473.488 327.288L475.009 327.288L475.009 328.809L473.488 328.809L473.488 327.288z"/>
<path class="l5" d="M474.225 337.151L474.272 337.151L474.272 337.198L474.225 337.198L474.225 337.151z"/>
<path class="l5" d="M557.898 336.414L559.419 337.174L557.898 337.935L557.898 336.414"/>
<path class="l5" d="M558.659 345.539L560.18 345.539L560.18 347.06L558.659 347.06L558.659 345.539z"/>
<path class="l5" d="M546.492 336.414L548.013 336.414L548.013 337.935L546.492 337.935L546.492 336.414z"/>
<path class="l5" d="M558.659 327.288L560.18 327.288L560.18 328.809L558.659 328.809L558.659 327.288z"/>
<path class="l5" d="M559.396 337.151L559.443 337.151L559.443 337.198L559.396 337.198L559.396 337.151z"/>
<path class="l5" d="M627.86 336.414L626.339 337.174L627.86 337.935L627.86 336.414"/>
<path class="l5" d="M625.579 345.539L627.1 345.539L627.1 347.06L625.579 347.06L625.579 345.539z"/>
<path class="l5" d="M637.746 336.414L639.267 336.414L639.267 337.935L637.746 337.935L637.746 336.414z"/>
<path class="l5" d="M625.579 327.288L627.1 327.288L627.1 328.809L625.579 328.809L625.579 327.288z"/>
<path class="l5" d="M626.315 337.151L626.363 337.151L626.363 337.198L626.315 337.198L626.315 337.151z"/>
<path class="l5" d="M407.329 391.166L405.808 391.927L407.329 392.687L407.329 391.166"/>
<path class="l5" d="M406.568 382.041L408.089 382.041L408.089 383.562L406.568 383.562L406.568 382.041z"/>
<path class="l5" d="M394.401 391.166L395.922 391.166L395.922 392.687L394.401 392.687L394.401 391.166z"/>
<path class="l5" d="M406.568 400.292L408.089 400.292L408.089 401.813L406.568 401.813L406.568 400.292z"/>
<path class="l5" d="M407.305 391.903L407.353 391.903L407.353 391.951L407.305 391.951L407.305 391.903z"/>
<path class="l5" d="M474.249 391.166L475.77 391.927L474.249 392.687L474.249 391.166"/>
<path class="l5" d="M473.488 382.041L475.009 382.041L475.009 383.562L473.488 383.562L473.488 382.041z"/>
<path class="l5" d="M485.655 391.166L487.176 391.166L487.176 392.687L485.655 392.687L485.655 391.166z"/>
<path class="l5" d="M473.488 400.292L475.009 400.292L475.009 401.813L473.488 401.813L473.488 400.292z"/>
<path class="l5" d="M474.225 391.903L474.272 391.903L474.272 391.951L474.225 391.951L474.225 391.903z"/>
<path class="l5" d="M559.419 391.166L557.898 391.927L559.419 392.687L559.419 391.166"/>
<path class="l5" d="M558.659 382.041L560.18 382.041L560.18 383.562L558.659 383.562L558.659 382.041z"/>
<path class="l5" d="M546.492 391.166L548.013 391.166L548.013 392.687L546.492 392.687L546.492 391.166z"/>
<path class="l5" d="M558.659 400.292L560.18 400.292L560.18 401.813L558.659 401.813L558.659 400.292z"/>
<path class="l5" d="M559.396 391.903L559.443 391.903L559.443 391.951L559.396 391.951L559.396 391.903z"/>
<path class="l5" d="M626.339 391.166L627.86 391.927L626.339 392.687L626.339 391.166"/>
<path class="l5" d="M625.579 382.041L627.1 382.041L627.1 383.562L625.579 383.562L625.579 382.041z"/>
<path class="l5" d="M637.746 391.166L639.267 391.166L639.267 392.687L637.746 392.687L637.746 391.166z"/>
<path class="l5" d="M625.579 400.292L627.1 400.292L627.1 401.813L625.579 401.813L625.579 400.292z"/>
<path class="l5" d="M626.315 391.903L626.363 391.903L626.363 391.951L626.315 391.951L626.315 391.903z"/>
<path class="l5" d="M513.032 412.459L514.553 412.459L514.553 413.98L513.032 413.98L513.032 412.459z"/>
<path class="l5" d="M779.951 336.414L781.472 337.174L779.951 337.935L779.951 336.414"/>
<path class="l5" d="M780.711 345.539L782.232 345.539L782.232 347.06L780.711 347.06L780.711 345.539z"/>
<path class="l5" d="M768.544 336.414L770.065 336.414L770.065 337.935L768.544 337.935L768.544 336.414z"/>
<path class="l5" d="M780.711 327.288L782.232 327.288L782.232 328.809L780.711 328.809L780.711 327.288z"/>
<path class="l5" d="M781.448 337.151L781.495 337.151L781.495 337.198L781.448 337.198L781.448 337.151z"/>
<path class="l5" d="M849.912 336.414L848.391 337.174L849.912 337.935L849.912 336.414"/>
<path class="l5" d="M847.631 345.539L849.152 345.539L849.152 347.06L847.631 347.06L847.631 345.539z"/>
<path class="l5" d="M859.798 336.414L861.319 336.414L861.319 337.935L859.798 337.935L859.798 336.414z"/>
<path class="l5" d="M847.631 327.288L849.152 327.288L849.152 328.809L847.631 328.809L847.631 327.288z"/>
<path class="l5" d="M848.368 337.151L848.415 337.151L848.415 337.198L848.368 337.198L848.368 337.151z"/>
<path class="l5" d="M932.041 336.414L933.562 337.174L932.041 337.935L932.041 336.414"/>
<path class="l5" d="M932.802 345.539L934.323 345.539L934.323 347.06L932.802 347.06L932.802 345.539z"/>
<path class="l5" d="M920.635 336.414L922.155 336.414L922.155 337.935L920.635 337.935L920.635 336.414z"/>
<path class="l5" d="M932.802 327.288L934.323 327.288L934.323 328.809L932.802 328.809L932.802 327.288z"/>
<path class="l5" d="M933.538 337.151L933.586 337.151L933.586 337.198L933.538 337.198L933.538 337.151z"/>
<path class="l5" d="M1002 336.414L1000.48 337.174L1002 337.935L1002 336.414"/>
<path class="l5" d="M999.722 345.539L1001.24 345.539L1001.24 347.06L999.722 347.06L999.722 345.539z"/>
<path class="l5" d="M1011.89 336.414L1013.41 336.414L1013.41 337.935L1011.89 337.935L1011.89 336.414z"/>
<path class="l5" d="M999.722 327.288L1001.24 327.288L1001.24 328.809L999.722 328.809L999.722 327.288z"/>
<path class="l5" d="M1000.46 337.151L1000.51 337.151L1000.51 337.198L1000.46 337.198L1000.46 337.151z"/>
<path class="l5" d="M781.472 391.166L779.951 391.927L781.472 392.687L781.472 391.166"/>
<path class="l5" d="M780.711 382.041L782.232 382.041L782.232 383.562L780.711 383.562L780.711 382.041z"/>
<path class="l5" d="M768.544 391.166L770.065 391.166L770.065 392.687L768.544 392.687L768.544 391.166z"/>
<path class="l5" d="M780.711 400.292L782.232 400.292L782.232 401.813L780.711 401.813L780.711 400.292z"/>
<path class="l5" d="M781.448 391.903L781.495 391.903L781.495 391.951L781.448 391.951L781.448 391.903z"/>
<path class="l5" d="M848.391 391.166L849.912 391.927L848.391 392.687L848.391 391.166"/>
<path class="l5" d="M847.631 382.041L849.152 382.041L849.152 383.562L847.631 383.562L847.631 382.041z"/>
<path class="l5" d="M859.798 391.166L861.319 391.166L861.319 392.687L859.798 392.687L859.798 391.166z"/>
<path class="l5" d="M847.631 400.292L849.152 400.292L849.152 401.813L847.631 401.813L847.631 400.292z"/>
<path class="l5" d="M848.368 391.903L848.415 391.903L848.415 391.951L848.368 391.951L848.368 391.903z"/>
<path class="l5" d="M933.562 391.166L932.041 391.927L933.562 392.687L933.562 391.166"/>
<path class="l5" d="M932.802 382.041L934.323 382.041L934.323 383.562L932.802 383.562L932.802 382.041z"/>
<path class="l5" d="M920.635 391.166L922.155 391.166L922.155 392.687L920.635 392.687L920.635 391.166z"/>
<path class="l5" d="M932.802 400.292L934.323 400.292L934.323 401.813L932.802 401.813L932.802 400.292z"/>
<path class="l5" d="M933.538 391.903L933.586 391.903L933.586 391.951L933.538 391.951L933.538 391.903z"/>
<path class="l5" d="M1000.48 391.166L1002 391.927L1000.48 392.687L1000.48 391.166"/>
<path class="l5" d="M999.722 382.041L1001.24 382.041L1001.24 383.562L999.722 383.562L999.722 382.041z"/>
<path class="l5" d="M1011.89 391.166L1013.41 391.166L1013.41 392.687L1011.89 392.687L1011.89 391.166z"/>
<path class="l5" d="M999.722 400.292L1001.24 400.292L1001.24 401.813L999.722 401.813L999.722 400.292z"/>
<path class="l5" d="M1000.46 391.903L1000.51 391.903L1000.51 391.951L1000.46 391.951L1000.46 391.903z"/>
<path class="l5" d="M887.175 412.459L888.696 412.459L888.696 413.98L887.175 413.98L887.175 412.459z"/>
<path class="l5" d="M1015.31 440.216L1016.07 440.216L1016.07 440.976L1015.31 440.976L1015.31 440.216z"/>
<path class="l5" d="M702.004 352.003L702.765 352.003L702.765 352.764L702.004 352.764L702.004 352.003z"/>
<path class="l5" d="M1057.52 482.421L1059.04 482.421L1059.04 483.942L1057.52 483.942L1057.52 482.421z"/>
<path class="l5" d="M1057.52 500.672L1059.04 500.672L1059.04 502.193L1057.52 502.193L1057.52 500.672z"/>
<path class="l5" d="M707.708 351.623L709.229 351.623L709.229 353.144L707.708 353.144L707.708 351.623z"/>
<path class="l5" d="M707.708 369.874L709.229 369.874L709.229 371.395L707.708 371.395L707.708 369.874z"/>
<path class="l5" d="M707.708 369.874L709.229 369.874L709.229 371.395L707.708 371.395L707.708 369.874z"/>
<path class="l5" d="M1057.52 500.672L1059.04 500.672L1059.04 502.193L1057.52 502.193L1057.52 500.672z"/>
<path class="l5" d="M421.777 336.414L423.298 336.414L423.298 337.935L421.777 337.935L421.777 336.414z"/>
<path class="l5" d="M458.279 336.414L459.8 336.414L459.8 337.935L458.279 337.935L458.279 336.414z"/>
<path class="l5" d="M570.826 336.414L572.347 336.414L572.347 337.935L570.826 337.935L570.826 336.414z"/>
<path class="l5" d="M613.412 336.414L614.932 336.414L614.932 337.935L613.412 337.935L613.412 336.414z"/>
<path class="l5" d="M795.92 336.414L797.441 336.414L797.441 337.935L795.92 337.935L795.92 336.414z"/>
<path class="l5" d="M832.422 336.414L833.943 336.414L833.943 337.935L832.422 337.935L832.422 336.414z"/>
<path class="l5" d="M944.969 336.414L946.49 336.414L946.49 337.935L944.969 337.935L944.969 336.414z"/>
<path class="l5" d="M987.554 336.414L989.075 336.414L989.075 337.935L987.554 337.935L987.554 336.414z"/>
<path class="l5" d="M297.063 260.369L298.584 260.369L298.584 261.889L297.063 261.889L297.063 260.369z"/>
<path class="l5" d="M297.063 278.619L298.584 278.619L298.584 280.14L297.063 280.14L297.063 278.619z"/>
<path class="l5" d="M297.063 287.745L298.584 287.745L298.584 289.266L297.063 289.266L297.063 287.745z"/>
<path class="l5" d="M266.645 159.989L268.166 159.989L268.166 161.51L266.645 161.51L266.645 159.989z"/>
<path class="l5" d="M266.645 178.24L268.166 178.24L268.166 179.761L266.645 179.761L266.645 178.24z"/>
<path class="l5" d="M266.645 178.24L268.166 178.24L268.166 179.761L266.645 179.761L266.645 178.24z"/>
<path class="l5" d="M379.192 321.205L380.713 321.205L380.713 322.726L379.192 322.726L379.192 321.205z"/>
<path class="l5" d="M379.192 287.745L380.713 287.745L380.713 289.266L379.192 289.266L379.192 287.745z"/>
<path class="l5" d="M379.192 305.996L380.713 305.996L380.713 307.517L379.192 307.517L379.192 305.996z"/>
<path class="l5" d="M461.321 260.369L462.842 260.369L462.842 261.889L461.321 261.889L461.321 260.369z"/>
<path class="l5" d="M461.321 278.619L462.842 278.619L462.842 280.14L461.321 280.14L461.321 278.619z"/>
<path class="l5" d="M461.321 287.745L462.842 287.745L462.842 289.266L461.321 289.266L461.321 287.745z"/>
<path class="l5" d="M340.409 251.243L338.888 252.004L340.409 252.764L340.409 251.243"/>
<path class="l5" d="M339.648 242.118L341.169 242.118L341.169 243.639L339.648 243.639L339.648 242.118z"/>
<path class="l5" d="M327.481 251.243L329.002 251.243L329.002 252.764L327.481 252.764L327.481 251.243z"/>
<path class="l5" d="M339.648 260.369L341.169 260.369L341.169 261.889L339.648 261.889L339.648 260.369z"/>
<path class="l5" d="M340.385 251.98L340.433 251.98L340.433 252.027L340.385 252.027L340.385 251.98z"/>
<path class="l5" d="M419.496 251.243L421.017 252.004L419.496 252.764L419.496 251.243"/>
<path class="l5" d="M418.736 242.118L420.256 242.118L420.256 243.639L418.736 243.639L418.736 242.118z"/>
<path class="l5" d="M430.903 251.243L432.424 251.243L432.424 252.764L430.903 252.764L430.903 251.243z"/>
<path class="l5" d="M418.736 260.369L420.256 260.369L420.256 261.889L418.736 261.889L418.736 260.369z"/>
<path class="l5" d="M419.472 251.98L419.52 251.98L419.52 252.027L419.472 252.027L419.472 251.98z"/>
<path class="l5" d="M338.888 172.156L340.409 172.916L338.888 173.677L338.888 172.156"/>
<path class="l5" d="M339.648 181.281L341.169 181.281L341.169 182.802L339.648 182.802L339.648 181.281z"/>
<path class="l5" d="M327.481 172.156L329.002 172.156L329.002 173.677L327.481 173.677L327.481 172.156z"/>
<path class="l5" d="M339.648 163.031L341.169 163.031L341.169 164.551L339.648 164.551L339.648 163.031z"/>
<path class="l5" d="M340.385 172.893L340.433 172.893L340.433 172.94L340.385 172.94L340.385 172.893z"/>
<path class="l5" d="M421.017 172.156L419.496 172.916L421.017 173.677L421.017 172.156"/>
<path class="l5" d="M418.736 181.281L420.256 181.281L420.256 182.802L418.736 182.802L418.736 181.281z"/>
<path class="l5" d="M430.903 172.156L432.424 172.156L432.424 173.677L430.903 173.677L430.903 172.156z"/>
<path class="l5" d="M418.736 163.031L420.256 163.031L420.256 164.551L418.736 164.551L418.736 163.031z"/>
<path class="l5" d="M419.472 172.893L419.52 172.893L419.52 172.94L419.472 172.94L419.472 172.893z"/>
<path class="l5" d="M388.698 275.958L389.458 275.958L389.458 276.718L388.698 276.718L388.698 275.958z"/>
<path class="l5" d="M728.24 172.156L729.761 172.916L728.24 173.677L728.24 172.156"/>
<path class="l5" d="M729 181.281L730.521 181.281L730.521 182.802L729 182.802L729 181.281z"/>
<path class="l5" d="M716.833 172.156L718.354 172.156L718.354 173.677L716.833 173.677L716.833 172.156z"/>
<path class="l5" d="M729 163.031L730.521 163.031L730.521 164.551L729 164.551L729 163.031z"/>
<path class="l5" d="M729.737 172.893L729.785 172.893L729.785 172.94L729.737 172.94L729.737 172.893z"/>
<text fill="#ff0000"  xml:space="preserve" font-size="2.37261" transform="translate(408.089, 344.652)" >D</text>
<text fill="#ff0000"  xml:space="preserve" font-size="2.37261" transform="translate(408.089, 331.284)" >S</text>
<text fill="#ff0000"  xml:space="preserve" font-size="2.37261" transform="translate(407.329, 336.287)" >B</text>
<text fill="#ff0000"  xml:space="preserve" font-size="2.37261" transform="translate(396.203, 336.287)" >G</text>
<text fill="#cccccc"  xml:space="preserve" font-size="3.16348" transform="translate(410.371, 333.757)" >pfet_03v3</text>
<text fill="#aaaa00"  xml:space="preserve" font-size="3.16348" transform="translate(410.751, 344.229)" >1 x 4.8u / 0.36u</text>
<text fill="#aaaa00"  xml:space="preserve" font-size="3.16348" transform="translate(410.751, 340.427)" >nf=2</text>
<text fill="#cccccc"  xml:space="preserve" font-size="3.16348" transform="translate(395.766, 330.921)" >XM1</text>
<text fill="#ff0000"  xml:space="preserve" font-size="2.37261" transform="translate(471.488, 344.652)" >D</text>
<text fill="#ff0000"  xml:space="preserve" font-size="2.37261" transform="translate(471.488, 331.284)" >S</text>
<text fill="#ff0000"  xml:space="preserve" font-size="2.37261" transform="translate(472.249, 336.287)" >B</text>
<text fill="#ff0000"  xml:space="preserve" font-size="2.37261" transform="translate(483.374, 336.287)" >G</text>
<text fill="#cccccc"  xml:space="preserve" font-size="3.16348" transform="translate(455.207, 333.757)" >pfet_03v3</text>
<text fill="#aaaa00"  xml:space="preserve" font-size="3.16348" transform="translate(445.827, 344.229)" >1 x 2.4u / 0.36u</text>
<text fill="#aaaa00"  xml:space="preserve" font-size="3.16348" transform="translate(462.827, 340.427)" >nf=1</text>
<text fill="#cccccc"  xml:space="preserve" font-size="3.16348" transform="translate(478.811, 330.921)" >XM2</text>
<text fill="#ff0000"  xml:space="preserve" font-size="2.37261" transform="translate(560.18, 344.652)" >D</text>
<text fill="#ff0000"  xml:space="preserve" font-size="2.37261" transform="translate(560.18, 331.284)" >S</text>
<text fill="#ff0000"  xml:space="preserve" font-size="2.37261" transform="translate(559.419, 336.287)" >B</text>
<text fill="#ff0000"  xml:space="preserve" font-size="2.37261" transform="translate(548.294, 336.287)" >G</text>
<text fill="#cccccc"  xml:space="preserve" font-size="3.16348" transform="translate(562.461, 333.757)" >pfet_03v3</text>
<text fill="#aaaa00"  xml:space="preserve" font-size="3.16348" transform="translate(562.841, 344.229)" >1 x 2.4u / 0.36u</text>
<text fill="#aaaa00"  xml:space="preserve" font-size="3.16348" transform="translate(562.841, 340.427)" >nf=1</text>
<text fill="#cccccc"  xml:space="preserve" font-size="3.16348" transform="translate(547.857, 330.921)" >XM3</text>
<text fill="#ff0000"  xml:space="preserve" font-size="2.37261" transform="translate(623.579, 344.652)" >D</text>
<text fill="#ff0000"  xml:space="preserve" font-size="2.37261" transform="translate(623.579, 331.284)" >S</text>
<text fill="#ff0000"  xml:space="preserve" font-size="2.37261" transform="translate(624.339, 336.287)" >B</text>
<text fill="#ff0000"  xml:space="preserve" font-size="2.37261" transform="translate(635.465, 336.287)" >G</text>
<text fill="#cccccc"  xml:space="preserve" font-size="3.16348" transform="translate(607.297, 333.757)" >pfet_03v3</text>
<text fill="#aaaa00"  xml:space="preserve" font-size="3.16348" transform="translate(597.917, 344.229)" >1 x 4.8u / 0.36u</text>
<text fill="#aaaa00"  xml:space="preserve" font-size="3.16348" transform="translate(614.917, 340.427)" >nf=2</text>
<text fill="#cccccc"  xml:space="preserve" font-size="3.16348" transform="translate(630.902, 330.921)" >XM4</text>
<text fill="#cccccc"  xml:space="preserve" font-size="3.16348" transform="translate(395.766, 385.674)" >XM5</text>
<text fill="#ff0000"  xml:space="preserve" font-size="2.37261" transform="translate(408.089, 399.404)" >S</text>
<text fill="#ff0000"  xml:space="preserve" font-size="2.37261" transform="translate(408.089, 386.037)" >D</text>
<text fill="#ff0000"  xml:space="preserve" font-size="2.37261" transform="translate(407.329, 391.039)" >B</text>
<text fill="#ff0000"  xml:space="preserve" font-size="2.37261" transform="translate(396.203, 391.039)" >G</text>
<text fill="#cccccc"  xml:space="preserve" font-size="3.16348" transform="translate(410.371, 388.509)" >nfet_03v3</text>
<text fill="#aaaa00"  xml:space="preserve" font-size="3.16348" transform="translate(410.751, 398.982)" >1 x 1.42u / 0.36u</text>
<text fill="#aaaa00"  xml:space="preserve" font-size="3.16348" transform="translate(410.751, 395.18)" >nf=2</text>
<text fill="#cccccc"  xml:space="preserve" font-size="3.16348" transform="translate(478.811, 385.674)" >XM6</text>
<text fill="#ff0000"  xml:space="preserve" font-size="2.37261" transform="translate(471.488, 399.404)" >S</text>
<text fill="#ff0000"  xml:space="preserve" font-size="2.37261" transform="translate(471.488, 386.037)" >D</text>
<text fill="#ff0000"  xml:space="preserve" font-size="2.37261" transform="translate(472.249, 391.039)" >B</text>
<text fill="#ff0000"  xml:space="preserve" font-size="2.37261" transform="translate(483.374, 391.039)" >G</text>
<text fill="#cccccc"  xml:space="preserve" font-size="3.16348" transform="translate(455.207, 388.509)" >nfet_03v3</text>
<text fill="#aaaa00"  xml:space="preserve" font-size="3.16348" transform="translate(443.827, 398.982)" >1 x 0.72u / 0.36u</text>
<text fill="#aaaa00"  xml:space="preserve" font-size="3.16348" transform="translate(462.827, 395.18)" >nf=1</text>
<text fill="#cccccc"  xml:space="preserve" font-size="3.16348" transform="translate(547.857, 385.674)" >XM7</text>
<text fill="#ff0000"  xml:space="preserve" font-size="2.37261" transform="translate(560.18, 399.404)" >S</text>
<text fill="#ff0000"  xml:space="preserve" font-size="2.37261" transform="translate(560.18, 386.037)" >D</text>
<text fill="#ff0000"  xml:space="preserve" font-size="2.37261" transform="translate(559.419, 391.039)" >B</text>
<text fill="#ff0000"  xml:space="preserve" font-size="2.37261" transform="translate(548.294, 391.039)" >G</text>
<text fill="#cccccc"  xml:space="preserve" font-size="3.16348" transform="translate(562.461, 388.509)" >nfet_03v3</text>
<text fill="#aaaa00"  xml:space="preserve" font-size="3.16348" transform="translate(562.841, 398.982)" >1 x 0.72u / 0.36u</text>
<text fill="#aaaa00"  xml:space="preserve" font-size="3.16348" transform="translate(562.841, 395.18)" >nf=1</text>
<text fill="#cccccc"  xml:space="preserve" font-size="3.16348" transform="translate(630.902, 385.674)" >XM8</text>
<text fill="#ff0000"  xml:space="preserve" font-size="2.37261" transform="translate(623.579, 399.404)" >S</text>
<text fill="#ff0000"  xml:space="preserve" font-size="2.37261" transform="translate(623.579, 386.037)" >D</text>
<text fill="#ff0000"  xml:space="preserve" font-size="2.37261" transform="translate(624.339, 391.039)" >B</text>
<text fill="#ff0000"  xml:space="preserve" font-size="2.37261" transform="translate(635.465, 391.039)" >G</text>
<text fill="#cccccc"  xml:space="preserve" font-size="3.16348" transform="translate(607.297, 388.509)" >nfet_03v3</text>
<text fill="#aaaa00"  xml:space="preserve" font-size="3.16348" transform="translate(595.917, 398.982)" >1 x 1.42u / 0.36u</text>
<text fill="#aaaa00"  xml:space="preserve" font-size="3.16348" transform="translate(614.917, 395.18)" >nf=2</text>
<text fill="#00ccee"  xml:space="preserve" font-size="3.16348" transform="translate(516.074, 417.613)" >GND</text>
<text fill="#ff0000"  xml:space="preserve" font-size="2.37261" transform="translate(782.232, 344.652)" >D</text>
<text fill="#ff0000"  xml:space="preserve" font-size="2.37261" transform="translate(782.232, 331.284)" >S</text>
<text fill="#ff0000"  xml:space="preserve" font-size="2.37261" transform="translate(781.472, 336.287)" >B</text>
<text fill="#ff0000"  xml:space="preserve" font-size="2.37261" transform="translate(770.346, 336.287)" >G</text>
<text fill="#cccccc"  xml:space="preserve" font-size="3.16348" transform="translate(784.513, 333.757)" >pfet_03v3</text>
<text fill="#aaaa00"  xml:space="preserve" font-size="3.16348" transform="translate(784.894, 344.229)" >1 x 4.8u / 0.36u</text>
<text fill="#aaaa00"  xml:space="preserve" font-size="3.16348" transform="translate(784.894, 340.427)" >nf=2</text>
<text fill="#cccccc"  xml:space="preserve" font-size="3.16348" transform="translate(769.909, 330.921)" >XM9</text>
<text fill="#ff0000"  xml:space="preserve" font-size="2.37261" transform="translate(845.631, 344.652)" >D</text>
<text fill="#ff0000"  xml:space="preserve" font-size="2.37261" transform="translate(845.631, 331.284)" >S</text>
<text fill="#ff0000"  xml:space="preserve" font-size="2.37261" transform="translate(846.391, 336.287)" >B</text>
<text fill="#ff0000"  xml:space="preserve" font-size="2.37261" transform="translate(857.517, 336.287)" >G</text>
<text fill="#cccccc"  xml:space="preserve" font-size="3.16348" transform="translate(829.35, 333.757)" >pfet_03v3</text>
<text fill="#aaaa00"  xml:space="preserve" font-size="3.16348" transform="translate(819.969, 344.229)" >1 x 2.4u / 0.36u</text>
<text fill="#aaaa00"  xml:space="preserve" font-size="3.16348" transform="translate(836.969, 340.427)" >nf=1</text>
<text fill="#cccccc"  xml:space="preserve" font-size="3.16348" transform="translate(852.954, 330.921)" >XM10</text>
<text fill="#ff0000"  xml:space="preserve" font-size="2.37261" transform="translate(934.323, 344.652)" >D</text>
<text fill="#ff0000"  xml:space="preserve" font-size="2.37261" transform="translate(934.323, 331.284)" >S</text>
<text fill="#ff0000"  xml:space="preserve" font-size="2.37261" transform="translate(933.562, 336.287)" >B</text>
<text fill="#ff0000"  xml:space="preserve" font-size="2.37261" transform="translate(922.437, 336.287)" >G</text>
<text fill="#cccccc"  xml:space="preserve" font-size="3.16348" transform="translate(936.604, 333.757)" >pfet_03v3</text>
<text fill="#aaaa00"  xml:space="preserve" font-size="3.16348" transform="translate(936.984, 344.229)" >1 x 2.4u / 0.36u</text>
<text fill="#aaaa00"  xml:space="preserve" font-size="3.16348" transform="translate(936.984, 340.427)" >nf=1</text>
<text fill="#cccccc"  xml:space="preserve" font-size="3.16348" transform="translate(920, 330.921)" >XM11</text>
<text fill="#ff0000"  xml:space="preserve" font-size="2.37261" transform="translate(997.722, 344.652)" >D</text>
<text fill="#ff0000"  xml:space="preserve" font-size="2.37261" transform="translate(997.722, 331.284)" >S</text>
<text fill="#ff0000"  xml:space="preserve" font-size="2.37261" transform="translate(998.482, 336.287)" >B</text>
<text fill="#ff0000"  xml:space="preserve" font-size="2.37261" transform="translate(1009.61, 336.287)" >G</text>
<text fill="#cccccc"  xml:space="preserve" font-size="3.16348" transform="translate(981.44, 333.757)" >pfet_03v3</text>
<text fill="#aaaa00"  xml:space="preserve" font-size="3.16348" transform="translate(972.06, 344.229)" >1 x 4.8u / 0.36u</text>
<text fill="#aaaa00"  xml:space="preserve" font-size="3.16348" transform="translate(989.06, 340.427)" >nf=2</text>
<text fill="#cccccc"  xml:space="preserve" font-size="3.16348" transform="translate(1005.04, 330.921)" >XM12</text>
<text fill="#cccccc"  xml:space="preserve" font-size="3.16348" transform="translate(767.909, 385.674)" >XM13</text>
<text fill="#ff0000"  xml:space="preserve" font-size="2.37261" transform="translate(782.232, 399.404)" >S</text>
<text fill="#ff0000"  xml:space="preserve" font-size="2.37261" transform="translate(782.232, 386.037)" >D</text>
<text fill="#ff0000"  xml:space="preserve" font-size="2.37261" transform="translate(781.472, 391.039)" >B</text>
<text fill="#ff0000"  xml:space="preserve" font-size="2.37261" transform="translate(770.346, 391.039)" >G</text>
<text fill="#cccccc"  xml:space="preserve" font-size="3.16348" transform="translate(784.513, 388.509)" >nfet_03v3</text>
<text fill="#aaaa00"  xml:space="preserve" font-size="3.16348" transform="translate(784.894, 398.982)" >1 x 1.42u / 0.36u</text>
<text fill="#aaaa00"  xml:space="preserve" font-size="3.16348" transform="translate(784.894, 395.18)" >nf=2</text>
<text fill="#cccccc"  xml:space="preserve" font-size="3.16348" transform="translate(852.954, 385.674)" >XM14</text>
<text fill="#ff0000"  xml:space="preserve" font-size="2.37261" transform="translate(845.631, 399.404)" >S</text>
<text fill="#ff0000"  xml:space="preserve" font-size="2.37261" transform="translate(845.631, 386.037)" >D</text>
<text fill="#ff0000"  xml:space="preserve" font-size="2.37261" transform="translate(846.391, 391.039)" >B</text>
<text fill="#ff0000"  xml:space="preserve" font-size="2.37261" transform="translate(857.517, 391.039)" >G</text>
<text fill="#cccccc"  xml:space="preserve" font-size="3.16348" transform="translate(829.35, 388.509)" >nfet_03v3</text>
<text fill="#aaaa00"  xml:space="preserve" font-size="3.16348" transform="translate(817.969, 398.982)" >1 x 0.72u / 0.36u</text>
<text fill="#aaaa00"  xml:space="preserve" font-size="3.16348" transform="translate(836.969, 395.18)" >nf=1</text>
<text fill="#cccccc"  xml:space="preserve" font-size="3.16348" transform="translate(920, 385.674)" >XM15</text>
<text fill="#ff0000"  xml:space="preserve" font-size="2.37261" transform="translate(934.323, 399.404)" >S</text>
<text fill="#ff0000"  xml:space="preserve" font-size="2.37261" transform="translate(934.323, 386.037)" >D</text>
<text fill="#ff0000"  xml:space="preserve" font-size="2.37261" transform="translate(933.562, 391.039)" >B</text>
<text fill="#ff0000"  xml:space="preserve" font-size="2.37261" transform="translate(922.437, 391.039)" >G</text>
<text fill="#cccccc"  xml:space="preserve" font-size="3.16348" transform="translate(936.604, 388.509)" >nfet_03v3</text>
<text fill="#aaaa00"  xml:space="preserve" font-size="3.16348" transform="translate(936.984, 398.982)" >1 x 0.72u / 0.36u</text>
<text fill="#aaaa00"  xml:space="preserve" font-size="3.16348" transform="translate(936.984, 395.18)" >nf=1</text>
<text fill="#cccccc"  xml:space="preserve" font-size="3.16348" transform="translate(1005.04, 385.674)" >XM16</text>
<text fill="#ff0000"  xml:space="preserve" font-size="2.37261" transform="translate(997.722, 399.404)" >S</text>
<text fill="#ff0000"  xml:space="preserve" font-size="2.37261" transform="translate(997.722, 386.037)" >D</text>
<text fill="#ff0000"  xml:space="preserve" font-size="2.37261" transform="translate(998.482, 391.039)" >B</text>
<text fill="#ff0000"  xml:space="preserve" font-size="2.37261" transform="translate(1009.61, 391.039)" >G</text>
<text fill="#cccccc"  xml:space="preserve" font-size="3.16348" transform="translate(981.44, 388.509)" >nfet_03v3</text>
<text fill="#aaaa00"  xml:space="preserve" font-size="3.16348" transform="translate(970.06, 398.982)" >1 x 1.42u / 0.36u</text>
<text fill="#aaaa00"  xml:space="preserve" font-size="3.16348" transform="translate(989.06, 395.18)" >nf=2</text>
<text fill="#00ccee"  xml:space="preserve" font-size="3.16348" transform="translate(890.216, 417.613)" >GND</text>
<text fill="#cccccc"  xml:space="preserve" font-size="4.74523" transform="translate(1044.59, 557.452)" >MODELS</text>
<text fill="#cccccc"  xml:space="preserve" font-size="4.74523" style="font-family:Monospace;" transform="translate(1047.63, 570.499)" >.include $::180MCU_MODELS/design.ngspice</text>
<text fill="#cccccc"  xml:space="preserve" font-size="4.74523" style="font-family:Monospace;" transform="translate(1047.63, 575.942)" >.lib $::180MCU_MODELS/sm141064.ngspice typical</text>
<text fill="#cccccc"  xml:space="preserve" font-size="4.74523" transform="translate(1236.22, 514.866)" >NGSPICE</text>
<text fill="#cccccc"  xml:space="preserve" font-size="4.74523" style="font-family:Monospace;" transform="translate(1239.26, 527.914)" >.control</text>
<text fill="#cccccc"  xml:space="preserve" font-size="4.74523" style="font-family:Monospace;" transform="translate(1239.26, 533.356)" >tran 10p 10n</text>
<text fill="#cccccc"  xml:space="preserve" font-size="4.74523" style="font-family:Monospace;" transform="translate(1239.26, 538.799)" >save all</text>
<text fill="#cccccc"  xml:space="preserve" font-size="4.74523" style="font-family:Monospace;" transform="translate(1239.26, 544.242)" >plot (v(voutp) - v(voutm))</text>
<text fill="#cccccc"  xml:space="preserve" font-size="4.74523" style="font-family:Monospace;" transform="translate(1239.26, 549.685)" >.endc</text>
<text fill="#00ccee"  xml:space="preserve" font-size="5.21975" transform="translate(1017.97, 441.82)" >VOUTP</text>
<text fill="#00ccee"  xml:space="preserve" font-size="5.21975" transform="translate(703.608, 350.102) rotate(270)" >VOUTM</text>
<text fill="#aaaa00"  xml:space="preserve" font-size="3.16348" transform="translate(1054.76, 487.194)" >1</text>
<text fill="#aaaa00"  xml:space="preserve" font-size="3.16348" transform="translate(1054.76, 500.122)" >2</text>
<text fill="#cccccc"  xml:space="preserve" font-size="3.16348" transform="translate(1062.84, 489.476)" >C1</text>
<text fill="#cccccc"  xml:space="preserve" font-size="3.16348" transform="translate(1062.84, 493.278)" >10f</text>
<text fill="#cccccc"  xml:space="preserve" font-size="3.16348" transform="translate(1062.84, 497.08)" >m=1</text>
<text fill="#aaaa00"  xml:space="preserve" font-size="3.16348" transform="translate(704.947, 356.396)" >1</text>
<text fill="#aaaa00"  xml:space="preserve" font-size="3.16348" transform="translate(704.947, 369.324)" >2</text>
<text fill="#cccccc"  xml:space="preserve" font-size="3.16348" transform="translate(713.031, 358.678)" >C2</text>
<text fill="#cccccc"  xml:space="preserve" font-size="3.16348" transform="translate(713.031, 362.48)" >10f</text>
<text fill="#cccccc"  xml:space="preserve" font-size="3.16348" transform="translate(713.031, 366.282)" >m=1</text>
<text fill="#00ccee"  xml:space="preserve" font-size="3.16348" transform="translate(710.75, 375.028)" >GND</text>
<text fill="#00ccee"  xml:space="preserve" font-size="3.16348" transform="translate(1060.56, 505.825)" >GND</text>
<text fill="#00ccee"  xml:space="preserve" font-size="3.16348" transform="translate(418.736, 329.4)" >VDD</text>
<text fill="#00ccee"  xml:space="preserve" font-size="3.16348" transform="translate(455.237, 329.4)" >VDD</text>
<text fill="#00ccee"  xml:space="preserve" font-size="3.16348" transform="translate(567.784, 329.4)" >VDD</text>
<text fill="#00ccee"  xml:space="preserve" font-size="3.16348" transform="translate(610.37, 329.4)" >VDD</text>
<text fill="#00ccee"  xml:space="preserve" font-size="3.16348" transform="translate(792.878, 329.4)" >VDD</text>
<text fill="#00ccee"  xml:space="preserve" font-size="3.16348" transform="translate(829.38, 329.4)" >VDD</text>
<text fill="#00ccee"  xml:space="preserve" font-size="3.16348" transform="translate(941.927, 329.4)" >VDD</text>
<text fill="#00ccee"  xml:space="preserve" font-size="3.16348" transform="translate(984.513, 329.4)" >VDD</text>
<text fill="#cccccc"  xml:space="preserve" font-size="3.16348" transform="translate(303.907, 267.423)" >V1</text>
<text fill="#cccccc"  xml:space="preserve" font-size="3.16348" transform="translate(303.907, 275.028)" >0</text>
<text fill="#00ccee"  xml:space="preserve" font-size="3.16348" transform="translate(300.105, 292.899)" >GND</text>
<text fill="#cccccc"  xml:space="preserve" font-size="3.16348" transform="translate(273.489, 167.044)" >V2</text>
<text fill="#cccccc"  xml:space="preserve" font-size="3.16348" transform="translate(273.489, 174.648)" >3.3</text>
<text fill="#00ccee"  xml:space="preserve" font-size="3.16348" transform="translate(269.687, 183.393)" >GND</text>
<text fill="#00ccee"  xml:space="preserve" font-size="3.16348" transform="translate(382.234, 326.359)" >GND</text>
<text fill="#cccccc"  xml:space="preserve" font-size="3.16348" transform="translate(386.036, 297.461)" >I1</text>
<text fill="#cccccc"  xml:space="preserve" font-size="3.16348" transform="translate(386.036, 301.09)" >1m</text>
<text fill="#cccccc"  xml:space="preserve" font-size="3.16348" transform="translate(451.998, 267.423)" >V3</text>
<text fill="#cccccc"  xml:space="preserve" font-size="3.16348" transform="translate(448.998, 275.028)" >1.65</text>
<text fill="#00ccee"  xml:space="preserve" font-size="3.16348" transform="translate(452.8, 292.899)" >GND</text>
<text fill="#cccccc"  xml:space="preserve" font-size="3.16348" transform="translate(326.846, 245.751)" >XM17</text>
<text fill="#ff0000"  xml:space="preserve" font-size="2.37261" transform="translate(341.169, 259.481)" >S</text>
<text fill="#ff0000"  xml:space="preserve" font-size="2.37261" transform="translate(341.169, 246.113)" >D</text>
<text fill="#ff0000"  xml:space="preserve" font-size="2.37261" transform="translate(340.409, 251.116)" >B</text>
<text fill="#ff0000"  xml:space="preserve" font-size="2.37261" transform="translate(329.283, 251.116)" >G</text>
<text fill="#cccccc"  xml:space="preserve" font-size="3.16348" transform="translate(343.451, 248.586)" >nfet_03v3</text>
<text fill="#aaaa00"  xml:space="preserve" font-size="3.16348" transform="translate(343.831, 259.058)" >1 x 8.7u / 0.28u</text>
<text fill="#aaaa00"  xml:space="preserve" font-size="3.16348" transform="translate(343.831, 255.256)" >nf=5</text>
<text fill="#cccccc"  xml:space="preserve" font-size="3.16348" transform="translate(424.059, 245.751)" >XM18</text>
<text fill="#ff0000"  xml:space="preserve" font-size="2.37261" transform="translate(416.736, 259.481)" >S</text>
<text fill="#ff0000"  xml:space="preserve" font-size="2.37261" transform="translate(416.736, 246.113)" >D</text>
<text fill="#ff0000"  xml:space="preserve" font-size="2.37261" transform="translate(417.496, 251.116)" >B</text>
<text fill="#ff0000"  xml:space="preserve" font-size="2.37261" transform="translate(428.621, 251.116)" >G</text>
<text fill="#cccccc"  xml:space="preserve" font-size="3.16348" transform="translate(400.454, 248.586)" >nfet_03v3</text>
<text fill="#aaaa00"  xml:space="preserve" font-size="3.16348" transform="translate(391.074, 259.058)" >1 x 8.7u / 0.28u</text>
<text fill="#aaaa00"  xml:space="preserve" font-size="3.16348" transform="translate(408.074, 255.256)" >nf=5</text>
<text fill="#ff0000"  xml:space="preserve" font-size="2.37261" transform="translate(341.169, 180.394)" >D</text>
<text fill="#ff0000"  xml:space="preserve" font-size="2.37261" transform="translate(341.169, 167.026)" >S</text>
<text fill="#ff0000"  xml:space="preserve" font-size="2.37261" transform="translate(340.409, 172.029)" >B</text>
<text fill="#ff0000"  xml:space="preserve" font-size="2.37261" transform="translate(329.283, 172.029)" >G</text>
<text fill="#cccccc"  xml:space="preserve" font-size="3.16348" transform="translate(343.451, 169.499)" >pfet_03v3</text>
<text fill="#aaaa00"  xml:space="preserve" font-size="3.16348" transform="translate(343.831, 179.971)" >1 x 20u / 1u</text>
<text fill="#aaaa00"  xml:space="preserve" font-size="3.16348" transform="translate(343.831, 176.169)" >nf=5</text>
<text fill="#cccccc"  xml:space="preserve" font-size="3.16348" transform="translate(326.846, 166.663)" >XM19</text>
<text fill="#ff0000"  xml:space="preserve" font-size="2.37261" transform="translate(416.736, 180.394)" >D</text>
<text fill="#ff0000"  xml:space="preserve" font-size="2.37261" transform="translate(416.736, 167.026)" >S</text>
<text fill="#ff0000"  xml:space="preserve" font-size="2.37261" transform="translate(417.496, 172.029)" >B</text>
<text fill="#ff0000"  xml:space="preserve" font-size="2.37261" transform="translate(428.621, 172.029)" >G</text>
<text fill="#cccccc"  xml:space="preserve" font-size="3.16348" transform="translate(400.454, 169.499)" >pfet_03v3</text>
<text fill="#aaaa00"  xml:space="preserve" font-size="3.16348" transform="translate(397.074, 179.971)" >1 x 20u / 1u</text>
<text fill="#aaaa00"  xml:space="preserve" font-size="3.16348" transform="translate(408.074, 176.169)" >nf=5</text>
<text fill="#cccccc"  xml:space="preserve" font-size="3.16348" transform="translate(424.059, 166.663)" >XM20</text>
<text fill="#00ccee"  xml:space="preserve" font-size="5.21975" transform="translate(390.302, 274.057) rotate(270)" >ib</text>
<text fill="#ff0000"  xml:space="preserve" font-size="2.37261" transform="translate(730.521, 180.394)" >D</text>
<text fill="#ff0000"  xml:space="preserve" font-size="2.37261" transform="translate(730.521, 167.026)" >S</text>
<text fill="#ff0000"  xml:space="preserve" font-size="2.37261" transform="translate(729.761, 172.029)" >B</text>
<text fill="#ff0000"  xml:space="preserve" font-size="2.37261" transform="translate(718.635, 172.029)" >G</text>
<text fill="#cccccc"  xml:space="preserve" font-size="3.16348" transform="translate(732.803, 169.499)" >pfet_03v3</text>
<text fill="#aaaa00"  xml:space="preserve" font-size="3.16348" transform="translate(733.183, 179.971)" >1 x 20u / 1u</text>
<text fill="#aaaa00"  xml:space="preserve" font-size="3.16348" transform="translate(733.183, 176.169)" >nf=5</text>
<text fill="#cccccc"  xml:space="preserve" font-size="3.16348" transform="translate(716.198, 166.663)" >XM21</text>
<path class="l1" d="M379.952 337.174L395.162 337.174"/>
<path class="l1" d="M379.952 337.174L379.952 391.927"/>
<path class="l1" d="M379.952 391.927L395.162 391.927"/>
<path class="l1" d="M638.506 337.174L653.716 337.174"/>
<path class="l1" d="M653.716 337.174L653.716 391.927"/>
<path class="l1" d="M638.506 391.927L653.716 391.927"/>
<path class="l1" d="M407.329 346.3L407.329 382.801"/>
<path class="l1" d="M626.339 346.3L626.339 382.801"/>
<path class="l1" d="M407.329 315.882L407.329 328.049"/>
<path class="l1" d="M474.249 315.882L474.249 328.049"/>
<path class="l1" d="M559.419 315.882L559.419 328.049"/>
<path class="l1" d="M407.329 315.882L474.249 315.882"/>
<path class="l1" d="M474.249 315.882L559.419 315.882"/>
<path class="l1" d="M559.419 315.882L626.339 315.882"/>
<path class="l1" d="M626.339 315.882L626.339 328.049"/>
<path class="l1" d="M626.339 401.052L626.339 413.22"/>
<path class="l1" d="M559.419 401.052L559.419 413.22"/>
<path class="l1" d="M474.249 401.052L474.249 413.22"/>
<path class="l1" d="M559.419 413.22L626.339 413.22"/>
<path class="l1" d="M474.249 413.22L559.419 413.22"/>
<path class="l1" d="M407.329 413.22L474.249 413.22"/>
<path class="l1" d="M407.329 401.052L407.329 413.22"/>
<path class="l1" d="M425.58 346.3L474.249 346.3"/>
<path class="l1" d="M425.58 346.3L425.58 352.383"/>
<path class="l1" d="M407.329 352.383L425.58 352.383"/>
<path class="l1" d="M559.419 346.3L608.088 346.3"/>
<path class="l1" d="M608.088 346.3L608.088 352.383"/>
<path class="l1" d="M608.088 352.383L626.339 352.383"/>
<path class="l1" d="M559.419 382.801L608.088 382.801"/>
<path class="l1" d="M608.088 376.718L608.088 382.801"/>
<path class="l1" d="M608.088 376.718L626.339 376.718"/>
<path class="l1" d="M425.58 382.801L474.249 382.801"/>
<path class="l1" d="M425.58 376.718L425.58 382.801"/>
<path class="l1" d="M407.329 376.718L425.58 376.718"/>
<path class="l1" d="M486.416 337.174L501.625 337.174"/>
<path class="l1" d="M501.625 337.174L529.001 358.467"/>
<path class="l1" d="M529.001 358.467L626.339 358.467"/>
<path class="l1" d="M532.043 337.174L547.252 337.174"/>
<path class="l1" d="M501.625 358.467L532.043 337.174"/>
<path class="l1" d="M407.329 358.467L501.625 358.467"/>
<path class="l1" d="M486.416 391.927L501.625 391.927"/>
<path class="l1" d="M501.625 391.927L529.001 370.634"/>
<path class="l1" d="M529.001 370.634L626.339 370.634"/>
<path class="l1" d="M529.001 391.927L547.252 391.927"/>
<path class="l1" d="M504.667 370.634L529.001 391.927"/>
<path class="l1" d="M407.329 370.634L504.667 370.634"/>
<path class="l1" d="M510.75 297.631L510.75 315.882"/>
<path class="l1" d="M559.419 337.174L571.587 337.174"/>
<path class="l1" d="M614.172 337.174L626.339 337.174"/>
<path class="l1" d="M459.04 337.174L474.249 337.174"/>
<path class="l1" d="M407.329 337.174L422.538 337.174"/>
<path class="l1" d="M407.329 391.927L422.538 391.927"/>
<path class="l1" d="M422.538 391.927L422.538 413.22"/>
<path class="l1" d="M459.04 391.927L474.249 391.927"/>
<path class="l1" d="M459.04 391.927L459.04 413.22"/>
<path class="l1" d="M568.545 391.927L568.545 413.22"/>
<path class="l1" d="M614.172 391.927L626.339 391.927"/>
<path class="l1" d="M614.172 391.927L614.172 413.22"/>
<path class="l1" d="M559.419 391.927L568.545 391.927"/>
<path class="l1" d="M754.095 337.174L769.304 337.174"/>
<path class="l1" d="M754.095 337.174L754.095 391.927"/>
<path class="l1" d="M754.095 391.927L769.304 391.927"/>
<path class="l1" d="M1012.65 337.174L1027.86 337.174"/>
<path class="l1" d="M1027.86 337.174L1027.86 391.927"/>
<path class="l1" d="M1012.65 391.927L1027.86 391.927"/>
<path class="l1" d="M781.472 346.3L781.472 382.801"/>
<path class="l1" d="M1000.48 346.3L1000.48 382.801"/>
<path class="l1" d="M781.472 315.882L781.472 328.049"/>
<path class="l1" d="M848.391 315.882L848.391 328.049"/>
<path class="l1" d="M933.562 315.882L933.562 328.049"/>
<path class="l1" d="M781.472 315.882L848.391 315.882"/>
<path class="l1" d="M848.391 315.882L933.562 315.882"/>
<path class="l1" d="M933.562 315.882L1000.48 315.882"/>
<path class="l1" d="M1000.48 315.882L1000.48 328.049"/>
<path class="l1" d="M1000.48 401.052L1000.48 413.22"/>
<path class="l1" d="M933.562 401.052L933.562 413.22"/>
<path class="l1" d="M848.391 401.052L848.391 413.22"/>
<path class="l1" d="M933.562 413.22L1000.48 413.22"/>
<path class="l1" d="M848.391 413.22L933.562 413.22"/>
<path class="l1" d="M781.472 413.22L848.391 413.22"/>
<path class="l1" d="M781.472 401.052L781.472 413.22"/>
<path class="l1" d="M799.723 346.3L848.391 346.3"/>
<path class="l1" d="M799.723 346.3L799.723 352.383"/>
<path class="l1" d="M781.472 352.383L799.723 352.383"/>
<path class="l1" d="M933.562 346.3L982.231 346.3"/>
<path class="l1" d="M982.231 346.3L982.231 352.383"/>
<path class="l1" d="M982.231 352.383L1000.48 352.383"/>
<path class="l1" d="M933.562 382.801L982.231 382.801"/>
<path class="l1" d="M982.231 376.718L982.231 382.801"/>
<path class="l1" d="M982.231 376.718L1000.48 376.718"/>
<path class="l1" d="M799.723 382.801L848.391 382.801"/>
<path class="l1" d="M799.723 376.718L799.723 382.801"/>
<path class="l1" d="M781.472 376.718L799.723 376.718"/>
<path class="l1" d="M860.559 337.174L875.768 337.174"/>
<path class="l1" d="M875.768 337.174L903.144 358.467"/>
<path class="l1" d="M903.144 358.467L1000.48 358.467"/>
<path class="l1" d="M906.186 337.174L921.395 337.174"/>
<path class="l1" d="M875.768 358.467L906.186 337.174"/>
<path class="l1" d="M781.472 358.467L875.768 358.467"/>
<path class="l1" d="M860.559 391.927L875.768 391.927"/>
<path class="l1" d="M875.768 391.927L903.144 370.634"/>
<path class="l1" d="M903.144 370.634L1000.48 370.634"/>
<path class="l1" d="M903.144 391.927L921.395 391.927"/>
<path class="l1" d="M878.81 370.634L903.144 391.927"/>
<path class="l1" d="M781.472 370.634L878.81 370.634"/>
<path class="l1" d="M884.893 297.631L884.893 315.882"/>
<path class="l1" d="M933.562 337.174L945.729 337.174"/>
<path class="l1" d="M988.315 337.174L1000.48 337.174"/>
<path class="l1" d="M833.182 337.174L848.391 337.174"/>
<path class="l1" d="M781.472 337.174L796.681 337.174"/>
<path class="l1" d="M781.472 391.927L796.681 391.927"/>
<path class="l1" d="M796.681 391.927L796.681 413.22"/>
<path class="l1" d="M833.182 391.927L848.391 391.927"/>
<path class="l1" d="M833.182 391.927L833.182 413.22"/>
<path class="l1" d="M942.688 391.927L942.688 413.22"/>
<path class="l1" d="M988.315 391.927L1000.48 391.927"/>
<path class="l1" d="M988.315 391.927L988.315 413.22"/>
<path class="l1" d="M933.562 391.927L942.688 391.927"/>
<path class="l1" d="M352.576 364.551L407.329 364.551"/>
<path class="l1" d="M352.576 364.551L352.576 455.805"/>
<path class="l1" d="M352.576 455.805L723.677 455.805"/>
<path class="l1" d="M723.677 364.551L723.677 455.805"/>
<path class="l1" d="M723.677 364.551L754.095 364.551"/>
<path class="l1" d="M626.339 364.551L687.175 364.551"/>
<path class="l1" d="M687.175 364.551L687.175 471.014"/>
<path class="l1" d="M687.175 471.014L1058.28 471.014"/>
<path class="l1" d="M510.75 297.631L884.893 297.631"/>
<path class="l1" d="M1027.86 364.551L1058.28 364.551"/>
<path class="l1" d="M1058.28 364.551L1058.28 471.014"/>
<path class="l1" d="M766.263 364.551L781.472 364.551"/>
<path class="l1" d="M766.263 352.383L766.263 364.551"/>
<path class="l1" d="M653.716 352.383L766.263 352.383"/>
<path class="l1" d="M1000.48 364.551L1015.69 364.551"/>
<path class="l1" d="M288.698 376.718L288.698 501.432"/>
<path class="l1" d="M288.698 376.718L379.952 376.718"/>
<path class="l1" d="M729.761 276.338L729.761 297.631"/>
<path class="l1" d="M297.824 279.38L297.824 288.505"/>
<path class="l1" d="M267.405 136.415L267.405 160.749"/>
<path class="l1" d="M340.409 261.129L340.409 276.338"/>
<path class="l1" d="M340.409 276.338L419.496 276.338"/>
<path class="l1" d="M419.496 261.129L419.496 276.338"/>
<path class="l1" d="M340.409 252.004L352.576 252.004"/>
<path class="l1" d="M352.576 252.004L352.576 264.171"/>
<path class="l1" d="M340.409 264.171L352.576 264.171"/>
<path class="l1" d="M407.329 252.004L419.496 252.004"/>
<path class="l1" d="M407.329 252.004L407.329 264.171"/>
<path class="l1" d="M407.329 264.171L419.496 264.171"/>
<path class="l1" d="M340.409 154.666L340.409 163.791"/>
<path class="l1" d="M340.409 154.666L419.496 154.666"/>
<path class="l1" d="M419.496 154.666L419.496 163.791"/>
<path class="l1" d="M340.409 172.916L352.576 172.916"/>
<path class="l1" d="M352.576 157.707L352.576 172.916"/>
<path class="l1" d="M352.576 154.666L352.576 157.707"/>
<path class="l1" d="M407.329 172.916L419.496 172.916"/>
<path class="l1" d="M407.329 154.666L407.329 172.916"/>
<path class="l1" d="M316.074 172.916L328.242 172.916"/>
<path class="l1" d="M316.074 172.916L316.074 188.126"/>
<path class="l1" d="M316.074 188.126L340.409 188.126"/>
<path class="l1" d="M419.496 188.126L443.831 188.126"/>
<path class="l1" d="M443.831 172.916L443.831 188.126"/>
<path class="l1" d="M431.663 172.916L443.831 172.916"/>
<path class="l1" d="M340.409 182.042L340.409 188.126"/>
<path class="l1" d="M340.409 188.126L340.409 203.335"/>
<path class="l1" d="M340.409 221.585L340.409 242.878"/>
<path class="l1" d="M419.496 182.042L419.496 188.126"/>
<path class="l1" d="M419.496 188.126L419.496 203.335"/>
<path class="l1" d="M419.496 221.585L419.496 242.878"/>
<path class="l1" d="M379.952 306.756L379.952 321.965"/>
<path class="l1" d="M379.952 276.338L379.952 288.505"/>
<path class="l1" d="M267.405 136.415L379.952 136.415"/>
<path class="l1" d="M379.952 136.415L379.952 154.666"/>
<path class="l1" d="M297.824 252.004L297.824 261.129"/>
<path class="l1" d="M297.824 252.004L328.242 252.004"/>
<path class="l1" d="M462.081 279.38L462.081 288.505"/>
<path class="l1" d="M462.081 252.004L462.081 261.129"/>
<path class="l1" d="M431.663 252.004L462.081 252.004"/>
<path class="l1" d="M443.831 172.916L717.594 172.916"/>
<path class="l1" d="M729.761 182.042L729.761 276.338"/>
<path class="l1" d="M419.496 154.666L729.761 154.666"/>
<path class="l1" d="M729.761 154.666L729.761 163.791"/>
<path class="l1" d="M729.761 172.916L741.928 172.916"/>
<path class="l1" d="M741.928 154.666L741.928 172.916"/>
<path class="l1" d="M729.761 154.666L741.928 154.666"/>
<path class="l1" d="M340.409 203.335L340.409 221.585"/>
<path class="l1" d="M419.496 203.335L419.496 224.627"/>
<path class="l1" d="M1015.69 483.181L1058.28 483.181"/>
<path class="l1" d="M288.698 501.432L1015.69 501.432"/>
<path class="l1" d="M1015.69 364.551L1015.69 483.181"/>
<path class="l1" d="M1015.69 483.181L1015.69 501.432"/>
<circle class="l1" cx="340.409" cy="188.126" r="1.12547"/>
<circle class="l1" cx="340.409" cy="188.126" r="1.12547"/>
<circle class="l1" cx="340.409" cy="188.126" r="1.12547"/>
<circle class="l1" cx="352.576" cy="154.666" r="1.12547"/>
<circle class="l1" cx="419.496" cy="154.666" r="1.12547"/>
<circle class="l1" cx="340.409" cy="264.171" r="1.12547"/>
<circle class="l1" cx="379.952" cy="376.718" r="1.12547"/>
<circle class="l1" cx="407.329" cy="364.551" r="1.12547"/>
<circle class="l1" cx="419.496" cy="224.627" r="1.12547"/>
<circle class="l1" cx="419.496" cy="154.666" r="1.12547"/>
<circle class="l1" cx="729.761" cy="154.666" r="1.12547"/>
<circle class="l1" cx="443.831" cy="172.916" r="1.12547"/>
<circle class="l1" cx="379.952" cy="154.666" r="1.12547"/>
<circle class="l1" cx="419.496" cy="188.126" r="1.12547"/>
<circle class="l1" cx="419.496" cy="188.126" r="1.12547"/>
<circle class="l1" cx="443.831" cy="172.916" r="1.12547"/>
<circle class="l1" cx="443.831" cy="172.916" r="1.12547"/>
<circle class="l1" cx="419.496" cy="188.126" r="1.12547"/>
<circle class="l1" cx="407.329" cy="154.666" r="1.12547"/>
<circle class="l1" cx="419.496" cy="154.666" r="1.12547"/>
<circle class="l1" cx="379.952" cy="276.338" r="1.12547"/>
<circle class="l1" cx="419.496" cy="221.585" r="1.12547"/>
<circle class="l1" cx="419.496" cy="264.171" r="1.12547"/>
<circle class="l1" cx="474.249" cy="315.882" r="1.12547"/>
<circle class="l1" cx="559.419" cy="315.882" r="1.12547"/>
<circle class="l1" cx="474.249" cy="315.882" r="1.12547"/>
<circle class="l1" cx="474.249" cy="315.882" r="1.12547"/>
<circle class="l1" cx="459.04" cy="413.22" r="1.12547"/>
<circle class="l1" cx="422.538" cy="413.22" r="1.12547"/>
<circle class="l1" cx="407.329" cy="370.634" r="1.12547"/>
<circle class="l1" cx="407.329" cy="358.467" r="1.12547"/>
<circle class="l1" cx="407.329" cy="376.718" r="1.12547"/>
<circle class="l1" cx="407.329" cy="352.383" r="1.12547"/>
<circle class="l1" cx="474.249" cy="413.22" r="1.12547"/>
<circle class="l1" cx="474.249" cy="413.22" r="1.12547"/>
<circle class="l1" cx="559.419" cy="413.22" r="1.12547"/>
<circle class="l1" cx="474.249" cy="413.22" r="1.12547"/>
<circle class="l1" cx="510.75" cy="315.882" r="1.12547"/>
<circle class="l1" cx="559.419" cy="315.882" r="1.12547"/>
<circle class="l1" cx="559.419" cy="315.882" r="1.12547"/>
<circle class="l1" cx="568.545" cy="413.22" r="1.12547"/>
<circle class="l1" cx="626.339" cy="370.634" r="1.12547"/>
<circle class="l1" cx="626.339" cy="358.467" r="1.12547"/>
<circle class="l1" cx="626.339" cy="376.718" r="1.12547"/>
<circle class="l1" cx="626.339" cy="352.383" r="1.12547"/>
<circle class="l1" cx="559.419" cy="413.22" r="1.12547"/>
<circle class="l1" cx="559.419" cy="413.22" r="1.12547"/>
<circle class="l1" cx="729.761" cy="154.666" r="1.12547"/>
<circle class="l1" cx="729.761" cy="154.666" r="1.12547"/>
<circle class="l1" cx="729.761" cy="297.631" r="1.12547"/>
<circle class="l1" cx="653.716" cy="352.383" r="1.12547"/>
<circle class="l1" cx="626.339" cy="364.551" r="1.12547"/>
<circle class="l1" cx="754.095" cy="364.551" r="1.12547"/>
<circle class="l1" cx="614.172" cy="413.22" r="1.12547"/>
<circle class="l1" cx="848.391" cy="315.882" r="1.12547"/>
<circle class="l1" cx="933.562" cy="315.882" r="1.12547"/>
<circle class="l1" cx="848.391" cy="315.882" r="1.12547"/>
<circle class="l1" cx="848.391" cy="315.882" r="1.12547"/>
<circle class="l1" cx="781.472" cy="364.551" r="1.12547"/>
<circle class="l1" cx="833.182" cy="413.22" r="1.12547"/>
<circle class="l1" cx="796.681" cy="413.22" r="1.12547"/>
<circle class="l1" cx="781.472" cy="370.634" r="1.12547"/>
<circle class="l1" cx="781.472" cy="358.467" r="1.12547"/>
<circle class="l1" cx="781.472" cy="376.718" r="1.12547"/>
<circle class="l1" cx="781.472" cy="352.383" r="1.12547"/>
<circle class="l1" cx="848.391" cy="413.22" r="1.12547"/>
<circle class="l1" cx="848.391" cy="413.22" r="1.12547"/>
<circle class="l1" cx="933.562" cy="413.22" r="1.12547"/>
<circle class="l1" cx="848.391" cy="413.22" r="1.12547"/>
<circle class="l1" cx="884.893" cy="315.882" r="1.12547"/>
<circle class="l1" cx="933.562" cy="315.882" r="1.12547"/>
<circle class="l1" cx="933.562" cy="315.882" r="1.12547"/>
<circle class="l1" cx="942.688" cy="413.22" r="1.12547"/>
<circle class="l1" cx="1000.48" cy="370.634" r="1.12547"/>
<circle class="l1" cx="1000.48" cy="358.467" r="1.12547"/>
<circle class="l1" cx="933.562" cy="413.22" r="1.12547"/>
<circle class="l1" cx="933.562" cy="413.22" r="1.12547"/>
<circle class="l1" cx="1015.69" cy="483.181" r="1.12547"/>
<circle class="l1" cx="1000.48" cy="364.551" r="1.12547"/>
<circle class="l1" cx="1027.86" cy="364.551" r="1.12547"/>
<circle class="l1" cx="988.315" cy="413.22" r="1.12547"/>
<circle class="l1" cx="1000.48" cy="376.718" r="1.12547"/>
<circle class="l1" cx="1000.48" cy="352.383" r="1.12547"/>
<circle class="l1" cx="1015.69" cy="483.181" r="1.12547"/>
<circle class="l1" cx="1015.69" cy="483.181" r="1.12547"/>
</svg>
